<?xml version="1.0" encoding="UTF-8"?><svg id="screen" xmlns="http://www.w3.org/2000/svg" viewBox="0 0 40.53 64"><defs><style>.cls-1{fill:#f07350;}.cls-2{fill:#2d3e50;}</style></defs><path class="cls-2" d="M34.28,0H6.25C2.84,0,.06,2.77,.06,6.18V57.82c0,3.41,2.77,6.18,6.18,6.18h28.04c3.41,0,6.18-2.77,6.18-6.18V6.18c0-3.41-2.77-6.18-6.18-6.18Zm3.35,57.82c0,1.85-1.5,3.35-3.35,3.35H6.25c-1.85,0-3.35-1.5-3.35-3.35v-5.15H37.63v5.15Zm0-7.98H2.9V11.9H37.63V49.84Zm0-40.78H2.9v-2.88c0-1.85,1.5-3.35,3.35-3.35h28.04c1.85,0,3.35,1.5,3.35,3.35v2.88Z"/><path class="cls-2" d="M24.02,4.53h-7.51c-.78,0-1.42,.63-1.42,1.42s.63,1.42,1.42,1.42h7.51c.78,0,1.42-.63,1.42-1.42s-.63-1.42-1.42-1.42Z"/><path class="cls-2" d="M19.01,60.6h2.5c2.16,0,3.92-1.65,3.92-3.68s-1.76-3.68-3.92-3.68h-2.5c-2.16,0-3.92,1.65-3.92,3.68s1.76,3.68,3.92,3.68Zm0-4.53h2.5c.59,0,1.09,.39,1.09,.85s-.5,.85-1.09,.85h-2.5c-.59,0-1.09-.39-1.09-.85s.5-.85,1.09-.85Z"/><path class="cls-1" d="M20.27,43.68c6.22,0,11.28-5.06,11.28-11.28,0-4.38-2.57-8.39-6.54-10.24-.71-.33-1.55-.02-1.88,.69s-.02,1.55,.69,1.88c2.97,1.38,4.9,4.39,4.9,7.67,0,4.66-3.79,8.45-8.45,8.45s-8.45-3.79-8.45-8.45c0-3.28,1.92-6.29,4.9-7.67,.71-.33,1.02-1.17,.69-1.88s-1.18-1.02-1.88-.69c-3.97,1.84-6.54,5.86-6.54,10.24,0,6.22,5.06,11.28,11.28,11.28Z"/><path class="cls-1" d="M20.27,31.31c.78,0,1.42-.63,1.42-1.42v-9.85c0-.78-.63-1.42-1.42-1.42s-1.42,.63-1.42,1.42v9.85c0,.78,.63,1.42,1.42,1.42Z"/></svg>