<?xml version="1.0" encoding="UTF-8"?><svg id="screen" xmlns="http://www.w3.org/2000/svg" viewBox="0 0 40.4 64"><defs><style>.cls-1{fill:#f07350;}.cls-2{fill:#2d3e50;}</style></defs><path class="cls-1" d="M30.66,22.91l-5.65,3.98,2.67-4.34c.3-.49,.28-1.12-.07-1.58l-4.25-5.76L36.25,3.54c-.56-.43-1.26-.7-2.03-.7h-1.42l-12.3,11.12c-.54,.49-.62,1.31-.19,1.89l4.44,6.03-4.87,7.93-4.29-3.88,2.17-5.9c.19-.52,.06-1.11-.34-1.5l-4.14-4.08h0c-.77,.65-1.75,1.07-2.83,1.19l4.33,4.27-2.19,5.94c-.2,.54-.05,1.15,.38,1.54l5.35,4.83-7.99-2.41v-5.74c0-.62-.41-1.18-1.01-1.36l-6.51-1.96v2.96l4.68,1.41v5.74c0,.62,.41,1.18,1.01,1.36l6.99,2.11-2.12,1.92H6.43c-.52,0-.99,.28-1.24,.73l-2.35,4.26v5.86l4.43-8.01h6.68c.35,0,.69-.13,.95-.37l3.24-2.93,2.74,.5-5.38,4.86c-.49,.44-.61,1.16-.29,1.74l1.98,3.59L3.57,59.89c.61,.77,1.55,1.28,2.61,1.28h.13l13.64-13.43c.45-.45,.55-1.14,.25-1.7l-1.96-3.55,5.12-4.64,1.78,4.83c.15,.42,.5,.74,.92,.87l5.78,1.74-9.42,15.84s-.01,.02-.02,.04h3.29l9.51-15.98c.22-.38,.26-.83,.1-1.24-.16-.41-.49-.72-.91-.84l-6.84-2.06-1.8-4.9,5.39-2.44,6.43,6.79v-4.12l-5.07-5.35c-.42-.44-1.06-.56-1.61-.32l-6.67,3.02-1.75-1.59,9.63-6.78,5.47-1.65v-2.96l-6.51,1.96c-.15,.04-.28,.11-.41,.2Z"/><path class="cls-2" d="M13.84,13.91c.15-.17,.29-.34,.41-.52,.11-.17,.22-.35,.31-.54,.04-.08,.07-.16,.1-.24,.1-.23,.18-.47,.24-.72,0-.04,.01-.08,.02-.11,.06-.29,.1-.59,.1-.89,0-2.66-2.32-4.82-5.17-4.82s-5.17,2.16-5.17,4.82,2.32,4.82,5.17,4.82c.21,0,.41-.03,.61-.06h0c1.08-.12,2.06-.54,2.83-1.19,.13-.11,.26-.23,.38-.35,.06-.06,.11-.13,.17-.19Zm-3.99-1.05c-1.29,0-2.34-.89-2.34-1.98s1.05-1.98,2.34-1.98,2.34,.89,2.34,1.98-1.05,1.98-2.34,1.98Z"/><path class="cls-2" d="M40.4,6.18c0-3.41-2.77-6.18-6.18-6.18H6.18C2.77,0,0,2.77,0,6.18V57.82c0,.24,.02,.47,.04,.7,0,.07,.02,.14,.03,.21,.02,.16,.05,.33,.09,.48,.02,.07,.04,.14,.06,.21,.04,.16,.09,.32,.15,.47,.02,.06,.04,.12,.06,.17,.07,.19,.16,.37,.25,.55,0,.02,.02,.04,.03,.06,.33,.63,.77,1.2,1.29,1.68,0,0,.01,.01,.02,.02,.17,.16,.35,.31,.54,.45h0c.18,.13,.36,.25,.56,.36h0c.44,.25,.91,.45,1.4,.59,.05,.01,.1,.03,.15,.04,.19,.05,.38,.09,.58,.12,.06,0,.13,.02,.19,.03,.25,.03,.5,.05,.75,.05h28.04c3.41,0,6.18-2.77,6.18-6.18m-2.83-37.07V57.82c0,1.85-1.5,3.35-3.35,3.35H6.18c-1.06,0-2-.51-2.61-1.28h0s0,0,0,0c-.11-.13-.2-.27-.29-.42-.01-.03-.03-.05-.04-.08-.07-.13-.13-.26-.19-.4-.03-.07-.05-.15-.07-.23-.03-.11-.07-.21-.09-.32-.04-.2-.06-.4-.06-.61V6.18c0-1.85,1.5-3.35,3.35-3.35h28.04c.77,0,1.46,.27,2.03,.7h0c.19,.15,.36,.31,.52,.49,.02,.02,.03,.04,.05,.06,.13,.16,.24,.33,.34,.52,.02,.04,.05,.08,.07,.13,.08,.17,.15,.35,.2,.53,.02,.06,.04,.11,.05,.17,.05,.24,.09,.49,.09,.74v14.57Z"/></svg>