<?xml version="1.0" encoding="UTF-8"?><svg id="screen" xmlns="http://www.w3.org/2000/svg" viewBox="0 0 36.68 64"><defs><style>.cls-1{fill:#f07350;}.cls-2{fill:#2d3e50;}</style></defs><path class="cls-2" d="M30.75,.13H5.93C2.66,.13,0,2.79,0,6.06V57.94c0,3.27,2.66,5.93,5.93,5.93H30.75c3.27,0,5.93-2.66,5.93-5.93V6.06c0-3.27-2.66-5.93-5.93-5.93Zm3.1,57.81c0,1.71-1.39,3.09-3.1,3.09H5.93c-1.71,0-3.1-1.39-3.1-3.09v-5.35h31.02v5.35Zm0-8.18H2.83V11.99h31.02V49.76Zm0-40.61H2.83v-3.09c0-1.71,1.39-3.09,3.1-3.09H30.75c1.71,0,3.1,1.39,3.1,3.09v3.09Z"/><path class="cls-2" d="M21.73,4.64h-6.77c-.78,0-1.42,.63-1.42,1.42s.63,1.42,1.42,1.42h6.77c.78,0,1.42-.63,1.42-1.42s-.63-1.42-1.42-1.42Z"/><path class="cls-2" d="M17.21,60.49h2.26c2.03,0,3.67-1.65,3.67-3.67s-1.65-3.67-3.67-3.67h-2.26c-2.03,0-3.67,1.65-3.67,3.67s1.65,3.67,3.67,3.67Zm0-4.51h2.26c.46,0,.84,.38,.84,.84s-.38,.84-.84,.84h-2.26c-.46,0-.84-.38-.84-.84s.38-.84,.84-.84Z"/><path class="cls-1" d="M8.18,45.82h4.88s0,0,0,0,0,0,0,0h15.07c2.23,0,4.04-1.81,4.04-4.04,0-.75-.21-1.48-.59-2.11l-6.25-12.06s-.04-.07-.06-.11c-.53-.84-1.27-1.49-2.12-1.94v-1.46c0-2.03-1.65-3.67-3.67-3.67h-.84v-3.09c0-.78-.63-1.42-1.42-1.42h-6.77c-.78,0-1.42,.63-1.42,1.42v3.09h-.84c-2.03,0-3.67,1.65-3.67,3.67v18.05c0,2.03,1.65,3.67,3.67,3.67Zm13-17.97c.08,.03,.17,.06,.26,.08,.56,.19,1.06,.54,1.4,1.05l6.25,12.05s.04,.08,.06,.11c.12,.19,.19,.41,.19,.64,0,.66-.54,1.2-1.21,1.2H13.06c-.66,0-1.21-.54-1.21-1.2,0-.23,.07-.45,.19-.64,.02-.04,.04-.07,.06-.11l6.25-12.05c.5-.75,1.33-1.2,2.24-1.2,.2,0,.4,.03,.59,.07Zm-9.33-9.1h3.94v1.68h-3.94v-1.68Zm-4.51,5.35c0-.45,.38-.84,.84-.84h11.29c.46,0,.84,.38,.84,.84v.86c-1.79,.09-3.41,1.02-4.38,2.54-.02,.04-.04,.07-.06,.11l-6.25,12.07c-.39,.63-.59,1.36-.59,2.11,0,.42,.08,.82,.2,1.2h-1.04c-.46,0-.84-.38-.84-.84V24.1Z"/><path class="cls-1" d="M20.6,36.8c.78,0,1.42-.63,1.42-1.42v-4.51c0-.78-.63-1.42-1.42-1.42s-1.42,.63-1.42,1.42v4.51c0,.78,.63,1.42,1.42,1.42Z"/><path class="cls-1" d="M20.6,42.44c1.4,0,2.55-1.14,2.55-2.54s-1.14-2.54-2.55-2.54-2.54,1.14-2.54,2.54,1.14,2.54,2.54,2.54Z"/></svg>