<?xml version="1.0" encoding="UTF-8"?><svg id="screen" xmlns="http://www.w3.org/2000/svg" viewBox="0 0 40.4 64"><defs><style>.cls-1{fill:#f07350;}.cls-2{fill:#2d3e50;}</style></defs><path class="cls-2" d="M9.85,15.7c2.85,0,5.17-2.16,5.17-4.82s-2.32-4.82-5.17-4.82-5.17,2.16-5.17,4.82,2.32,4.82,5.17,4.82Zm0-6.8c1.29,0,2.34,.89,2.34,1.98s-1.05,1.98-2.34,1.98-2.34-.89-2.34-1.98,1.05-1.98,2.34-1.98Z"/><path class="cls-2" d="M34.22,0H6.18C2.77,0,0,2.77,0,6.18V57.82c0,3.41,2.77,6.18,6.18,6.18h28.04c3.41,0,6.18-2.77,6.18-6.18V6.18c0-3.41-2.77-6.18-6.18-6.18Zm3.35,57.82c0,1.85-1.5,3.35-3.35,3.35H6.18c-1.85,0-3.35-1.5-3.35-3.35V6.18c0-1.85,1.5-3.35,3.35-3.35h28.04c1.85,0,3.35,1.5,3.35,3.35V57.82Z"/><path class="cls-1" d="M33.38,23.49h-1.4c-.7-2.73-3.34-4.77-6.51-4.77H14.93c-3.16,0-5.81,2.04-6.51,4.77h-1.4c-.78,0-1.42,.63-1.42,1.42v16.69c0,.78,.63,1.42,1.42,1.42h26.36c.78,0,1.42-.63,1.42-1.42V24.91c0-.78-.63-1.42-1.42-1.42Zm-18.45-1.93h10.54c1.54,0,2.88,.79,3.49,1.93H11.44c.62-1.14,1.95-1.93,3.49-1.93Zm17.04,18.63H8.44v-13.86H31.97v13.86Z"/><path class="cls-1" d="M20.2,27.07c-3.69,0-6.69,2.78-6.69,6.19s3,6.19,6.69,6.19,6.69-2.78,6.69-6.19-3-6.19-6.69-6.19Zm0,9.54c-2.13,0-3.86-1.5-3.86-3.35s1.73-3.35,3.86-3.35,3.86,1.5,3.86,3.35-1.73,3.35-3.86,3.35Z"/></svg>