<?xml version="1.0" encoding="UTF-8"?><svg id="screen" xmlns="http://www.w3.org/2000/svg" viewBox="0 0 46.34 64"><defs><style>.cls-1{fill:#f07350;}.cls-2{fill:#2d3e50;}</style></defs><path class="cls-2" d="M33.64,31.41c-.48-.48-1.29-.5-1.84-.11l-6.19-6.19c2.79-5.16,2.01-11.76-2.35-16.12-5.31-5.31-13.96-5.31-19.28,0C-1.33,14.31-1.33,22.95,3.99,28.27c2.66,2.66,6.15,3.99,9.64,3.99,2.25,0,4.5-.56,6.53-1.67l6.18,6.18c-.42,.56-.4,1.34,.11,1.84l11.24,11.24c.99,.99,2.29,1.49,3.59,1.49s2.6-.5,3.6-1.49c1.98-1.98,1.98-5.21,0-7.19l-11.24-11.24ZM5.99,26.26c-4.21-4.21-4.21-11.06,0-15.27,2.11-2.1,4.87-3.16,7.63-3.16s5.53,1.05,7.63,3.16c3.65,3.65,4.13,9.27,1.46,13.44-.03,.03-.06,.06-.08,.1-.4,.61-.87,1.17-1.38,1.68-.51,.51-1.08,.97-1.68,1.38-.06,.04-.11,.09-.17,.14-4.17,2.65-9.78,2.17-13.42-1.47Zm17.27,2c.25-.25,.48-.52,.71-.79l5.79,5.79-1.45,1.45-5.79-5.79c.25-.22,.5-.43,.74-.67Zm19.61,19.56c-.88,.88-2.31,.88-3.18,0l-10.24-10.24,3.18-3.18,10.24,10.24c.88,.88,.88,2.3,0,3.18Z"/><path class="cls-1" d="M20.67,25.68c.55-.55,.55-1.45,0-2-.41-.41-1.01-.51-1.52-.31l-1.3-3.91,2.9-.74c0,.38-.03,.76-.1,1.13-.14,.77,.38,1.51,1.15,1.64,.08,.01,.17,.02,.25,.02,.67,0,1.27-.48,1.39-1.17,.3-1.71,.16-3.47-.42-5.1-.26-.74-1.07-1.12-1.81-.86-.65,.23-1.02,.88-.93,1.53l-3.82,.97-2.22-2.22,1.95-2.68c.92,.35,1.77,.89,2.49,1.61,.55,.55,1.45,.55,2,0s.55-1.45,0-2c-1.88-1.88-4.38-2.92-7.05-2.92s-5.16,1.04-7.05,2.92c-3.89,3.89-3.89,10.21,0,14.1,1.88,1.88,4.38,2.92,7.05,2.92s5.17-1.04,7.05-2.92Zm-8.44-.05l3.29-4.22,1.21,3.64c-.96,.46-2.01,.72-3.1,.72-.47,0-.94-.05-1.4-.14Zm-.86-9.83l2.76,2.76-.76,.97-4.56-6.16c1.16-1.07,2.62-1.71,4.19-1.85l-1.77,2.43c-.41,.56-.35,1.34,.14,1.84Zm-4.29,0l4.49,6.05-2.03,2.61c-.34-.24-.66-.5-.96-.8-2.12-2.12-2.62-5.27-1.5-7.87Z"/><path class="cls-2" d="M3.96,7.37c.78,0,1.42-.63,1.42-1.42,0-1.72,1.61-3.11,3.59-3.11h27.55c1.98,0,3.59,1.4,3.59,3.11v29.02c0,.78,.63,1.42,1.42,1.42s1.42-.63,1.42-1.42V5.95c0-3.28-2.88-5.95-6.43-5.95H8.97C5.43,0,2.54,2.67,2.54,5.95c0,.78,.63,1.42,1.42,1.42Z"/><path class="cls-2" d="M41.53,53.38c-.78,0-1.42,.63-1.42,1.42v3.26c0,1.72-1.61,3.11-3.59,3.11H8.97c-1.98,0-3.59-1.4-3.59-3.11v-25.64c0-.78-.63-1.42-1.42-1.42s-1.42,.63-1.42,1.42v25.64c0,3.28,2.88,5.95,6.43,5.95h27.55c3.54,0,6.43-2.67,6.43-5.95v-3.26c0-.78-.63-1.42-1.42-1.42Z"/></svg>