<?xml version="1.0" encoding="UTF-8"?><svg id="screen" xmlns="http://www.w3.org/2000/svg" viewBox="0 0 64 49.27"><defs><style>.cls-1{stroke:#f07350;}.cls-1,.cls-2{fill:none;stroke-linecap:round;stroke-linejoin:round;stroke-width:2.83px;}.cls-2{stroke:#2d3e50;}</style></defs><path class="cls-2" d="M36.93,15.41V5.26c0-2.03,1.78-3.69,3.95-3.69h17.76c2.17,0,3.95,1.66,3.95,3.69V44.01c0,2.03-1.78,3.69-3.95,3.69h-17.76c-2.17,0-3.95-1.66-3.95-3.69v-11.99"/><line class="cls-2" x1="36.93" y1="28.32" x2="36.93" y2="19.1"/><line class="cls-2" x1="46.8" y1="5.26" x2="52.72" y2="5.26"/><line class="cls-2" x1="36.93" y1="8.95" x2="62.58" y2="8.95"/><line class="cls-2" x1="36.93" y1="38.47" x2="62.58" y2="38.47"/><path class="cls-2" d="M50.74,44.93h-1.97c-1.09,0-1.97-.83-1.97-1.85h0c0-1.02,.88-1.85,1.97-1.85h1.97c1.09,0,1.97,.83,1.97,1.85h0c0,1.02-.88,1.85-1.97,1.85Z"/><polygon class="cls-1" points="27.07 15.41 27.07 19.1 40.88 19.1 40.88 21.87 46.8 17.25 40.88 12.64 40.88 15.41 27.07 15.41"/><polygon class="cls-1" points="27.07 28.32 27.07 32.02 40.88 32.02 40.88 34.78 46.8 30.17 40.88 25.56 40.88 28.32 27.07 28.32"/><g><rect class="cls-2" x="1.42" y="1.57" width="25.65" height="46.13" rx="3.82" ry="3.82"/><line class="cls-2" x1="11.28" y1="5.26" x2="17.2" y2="5.26"/><line class="cls-2" x1="1.42" y1="8.95" x2="27.07" y2="8.95"/><line class="cls-2" x1="1.42" y1="38.47" x2="27.07" y2="38.47"/><path class="cls-2" d="M15.23,44.93h-1.97c-1.09,0-1.97-.83-1.97-1.85h0c0-1.02,.88-1.85,1.97-1.85h1.97c1.09,0,1.97,.83,1.97,1.85h0c0,1.02-.88,1.85-1.97,1.85Z"/></g></svg>