<?xml version="1.0" encoding="UTF-8"?><svg id="screen" xmlns="http://www.w3.org/2000/svg" viewBox="0 0 49.8 64"><defs><style>.cls-1{fill:#f07350;}.cls-2{fill:#2d3e50;}</style></defs><path class="cls-2" d="M38.14,52.88c-.78,0-1.42,.63-1.42,1.42v3.76c0,1.72-1.56,3.11-3.49,3.11H6.26c-1.92,0-3.49-1.4-3.49-3.11v-5.38h30.46c.78,0,1.42-.63,1.42-1.42s-.63-1.42-1.42-1.42H2.77V11.9h30.46c.78,0,1.42-.63,1.42-1.42s-.63-1.42-1.42-1.42H2.77v-3.11c0-1.72,1.56-3.11,3.49-3.11h26.97c1.92,0,3.49,1.4,3.49,3.11v1.35c0,.78,.63,1.42,1.42,1.42s1.42-.63,1.42-1.42v-1.35c0-3.28-2.84-5.95-6.32-5.95H6.26C2.78,0-.06,2.67-.06,5.95V58.05c0,3.28,2.84,5.95,6.32,5.95h26.97c3.49,0,6.32-2.67,6.32-5.95v-3.76c0-.78-.63-1.42-1.42-1.42Z"/><path class="cls-2" d="M16.07,4.53c-.78,0-1.42,.63-1.42,1.42s.63,1.42,1.42,1.42h7.36c.78,0,1.42-.63,1.42-1.42s-.63-1.42-1.42-1.42h-7.36Z"/><path class="cls-2" d="M18.52,53.24c-2.13,0-3.87,1.65-3.87,3.68s1.74,3.68,3.87,3.68h2.45c2.13,0,3.87-1.65,3.87-3.68s-1.74-3.68-3.87-3.68h-2.45Zm3.49,3.68c0,.46-.47,.85-1.04,.85h-2.45c-.57,0-1.04-.38-1.04-.85s.46-.85,1.04-.85h2.45c.56,0,1.04,.39,1.04,.85Z"/><path class="cls-1" d="M37.41,14.91c-9.03,0-12.39,7.09-12.39,11.56,0,.78,.63,1.42,1.42,1.42s1.42-.63,1.42-1.42c0-2.43,1.72-8.72,9.56-8.72s9.56,6.3,9.56,8.72c0,2.76-3.13,5.65-5.64,7.97-2.35,2.17-2.07,3.83-1.82,5.3,.08,.46,.15,.89,.15,1.38,0,1.47-1.81,3.09-3.46,3.09-1.88,0-4.08-2.03-5.13-3-.57-.53-1.47-.49-2,.08-.53,.58-.5,1.47,.08,2,1.32,1.22,4.07,3.76,7.06,3.76,3.24,0,6.29-2.88,6.29-5.92,0-.72-.1-1.32-.19-1.85-.2-1.18-.27-1.62,.95-2.75,2.92-2.7,6.55-6.05,6.55-10.05,0-4.47-3.36-11.56-12.39-11.56Z"/><path class="cls-1" d="M37.41,22.25c2.89,0,4.68,1.62,4.68,4.22,0,.78,.63,1.42,1.42,1.42s1.42-.63,1.42-1.42c0-4.15-3.09-7.05-7.51-7.05s-7.51,2.9-7.51,7.05c0,3.64,.17,4.8,3.86,4.8,2.3,0,2.61-1.91,2.73-2.62,.03-.21,.09-.55,.15-.63,0,0,.17-.12,.78-.12s1.25,0,1.67,.02c0,.1,0,.19,0,.29-.01,.31-.02,.67-.02,1.09,0,.73-.31,1.08-1.01,1.79-.86,.87-2.04,2.06-2.04,4.41,0,1.6-.3,1.91-.3,1.91-.1,.05-.49,.05-.72,.05-.13,0-.24,0-.33,0-.18-.25-.51-.87-.86-1.51-.37-.69-1.23-.94-1.92-.57s-.94,1.23-.57,1.92c1.25,2.3,1.62,3,3.69,3,1.91,0,3.86-.57,3.86-4.8,0-1.18,.49-1.67,1.22-2.42,.77-.78,1.83-1.85,1.83-3.78,0-.38,.01-.71,.02-.99,.04-.96,.06-1.8-.59-2.48-.74-.76-1.66-.76-3.9-.76-3.22,0-3.58,2.2-3.73,3.14-.01,.07-.03,.16-.04,.24-.31,0-.64,0-.87-.01-.04-.42-.04-1.2-.04-1.95,0-2.6,1.79-4.22,4.68-4.22Z"/></svg>