<?xml version="1.0" encoding="UTF-8"?><svg id="screen" xmlns="http://www.w3.org/2000/svg" viewBox="0 0 40.4 64"><defs><style>.cls-1{fill:#f07350;}.cls-2{fill:#2d3e50;}</style></defs><path class="cls-1" d="M7.02,43.01h26.36c.78,0,1.42-.63,1.42-1.42V24.91c0-.78-.63-1.42-1.42-1.42h-1.4c-.7-2.73-3.34-4.77-6.51-4.77H14.93c-3.16,0-5.81,2.04-6.51,4.77h-1.4c-.78,0-1.42,.63-1.42,1.42v16.69c0,.78,.63,1.42,1.42,1.42Zm7.91-21.46h10.54c1.54,0,2.88,.79,3.49,1.93H11.44c.62-1.14,1.95-1.93,3.49-1.93Zm-6.49,4.77H31.97v13.86H8.44v-13.86Z"/><path class="cls-1" d="M20.2,27.07c-3.69,0-6.69,2.78-6.69,6.19s3,6.19,6.69,6.19,6.69-2.78,6.69-6.19-3-6.19-6.69-6.19Zm0,9.54c-2.13,0-3.86-1.5-3.86-3.35s1.73-3.35,3.86-3.35,3.86,1.5,3.86,3.35-1.73,3.35-3.86,3.35Z"/><path class="cls-2" d="M33.98,0H6.43C2.88,0,0,2.67,0,5.95V58.05c0,3.28,2.88,5.95,6.43,5.95h27.55c3.54,0,6.43-2.67,6.43-5.95V5.95c0-3.28-2.88-5.95-6.43-5.95Zm3.59,58.05c0,1.72-1.61,3.11-3.59,3.11H6.43c-1.98,0-3.59-1.4-3.59-3.11v-5.38H37.57v5.38Zm0-8.21H2.83V11.9H37.57V49.84Zm0-40.78H2.83v-3.11c0-1.72,1.61-3.11,3.59-3.11h27.55c1.98,0,3.59,1.4,3.59,3.11v3.11Z"/><path class="cls-2" d="M23.96,4.53h-7.51c-.78,0-1.42,.63-1.42,1.42s.63,1.42,1.42,1.42h7.51c.78,0,1.42-.63,1.42-1.42s-.63-1.42-1.42-1.42Z"/><path class="cls-2" d="M18.95,60.6h2.5c2.16,0,3.92-1.65,3.92-3.68s-1.76-3.68-3.92-3.68h-2.5c-2.16,0-3.92,1.65-3.92,3.68s1.76,3.68,3.92,3.68Zm0-4.53h2.5c.59,0,1.09,.39,1.09,.85s-.5,.85-1.09,.85h-2.5c-.59,0-1.09-.39-1.09-.85s.5-.85,1.09-.85Z"/></svg>