<?xml version="1.0" encoding="UTF-8"?><svg id="screen" xmlns="http://www.w3.org/2000/svg" viewBox="0 0 52.19 64"><defs><style>.cls-1{fill:none;}.cls-2{fill:#f07350;}.cls-3{fill:#2d3e50;}</style></defs><path class="cls-3" d="M15.87,7.37h7.22c.78,0,1.42-.63,1.42-1.42s-.63-1.42-1.42-1.42h-7.22c-.78,0-1.42,.63-1.42,1.42s.63,1.42,1.42,1.42Z"/><path class="cls-1" d="M2.83,58.05c0,1.72,1.53,3.11,3.4,3.11h26.49c1.87,0,3.4-1.4,3.4-3.11v-5.38H2.83v5.38Zm15.44-4.81h2.41c2.11,0,3.83,1.65,3.83,3.68s-1.72,3.68-3.83,3.68h-2.41c-2.11,0-3.83-1.65-3.83-3.68s1.72-3.68,3.83-3.68Z"/><path class="cls-1" d="M18.27,57.77h2.41c.55,0,.99-.38,.99-.85s-.45-.85-.99-.85h-2.41c-.55,0-.99,.38-.99,.85s.45,.85,.99,.85Z"/><path class="cls-1" d="M36.12,5.95c0-1.72-1.53-3.11-3.4-3.11H6.23c-1.87,0-3.4,1.4-3.4,3.11v3.11H36.12v-3.11Z"/><path class="cls-3" d="M37.54,35.49c.78,0,1.42-.63,1.42-1.42V5.95c0-3.28-2.8-5.95-6.23-5.95H6.23C2.8,0,0,2.67,0,5.95V58.05c0,3.28,2.8,5.95,6.23,5.95h26.49c3.44,0,6.23-2.67,6.23-5.95v-.86c0-.78-.63-1.42-1.42-1.42s-1.42,.63-1.42,1.42v.86c0,1.72-1.53,3.11-3.4,3.11H6.23c-1.87,0-3.4-1.4-3.4-3.11v-5.38H14.45v-2.83H2.83V11.9H36.12v22.17c0,.78,.63,1.42,1.42,1.42ZM2.83,9.06v-3.11c0-1.72,1.53-3.11,3.4-3.11h26.49c1.87,0,3.4,1.4,3.4,3.11v3.11H2.83Z"/><path class="cls-3" d="M18.27,60.6h2.41c2.11,0,3.83-1.65,3.83-3.68s-1.72-3.68-3.83-3.68h-2.41c-2.11,0-3.83,1.65-3.83,3.68s1.72,3.68,3.83,3.68Zm0-4.53h2.41c.55,0,.99,.38,.99,.85s-.45,.85-.99,.85h-2.41c-.55,0-.99-.38-.99-.85s.45-.85,.99-.85Z"/><path class="cls-2" d="M39.47,39.36c-.48-.48-1.29-.5-1.84-.11l-6.19-6.19c2.79-5.16,2.01-11.76-2.35-16.12-5.31-5.31-13.96-5.31-19.28,0-5.31,5.31-5.31,13.96,0,19.28,2.66,2.66,6.15,3.99,9.64,3.99,2.25,0,4.5-.56,6.53-1.67l6.18,6.18c-.42,.56-.4,1.34,.11,1.84l11.24,11.24c.99,.99,2.29,1.49,3.59,1.49s2.6-.5,3.6-1.49c1.98-1.98,1.98-5.21,0-7.19l-11.24-11.24Zm-27.65-5.15c-4.21-4.21-4.21-11.06,0-15.27,2.11-2.1,4.87-3.16,7.63-3.16s5.53,1.05,7.63,3.16c3.65,3.65,4.13,9.27,1.46,13.44-.03,.03-.06,.06-.08,.1-.4,.61-.87,1.17-1.38,1.68-.51,.51-1.08,.97-1.68,1.38-.06,.04-.11,.09-.17,.14-4.17,2.65-9.78,2.17-13.42-1.47Zm17.27,2c.25-.25,.48-.52,.71-.79l5.79,5.79-1.45,1.45-5.79-5.79c.25-.22,.5-.43,.74-.67Zm19.61,19.56c-.88,.88-2.31,.88-3.18,0l-10.24-10.24,3.18-3.18,10.24,10.24c.88,.88,.88,2.3,0,3.18Z"/><path class="cls-3" d="M11.16,52.67h21.17c.78,0,1.42-.63,1.42-1.42s-.63-1.42-1.42-1.42H5.21"/></svg>