<?xml version="1.0" encoding="UTF-8"?><svg id="screen" xmlns="http://www.w3.org/2000/svg" viewBox="0 0 36.69 64"><defs><style>.cls-1{fill:#f07350;}.cls-2{fill:#2d3e50;}</style></defs><g><path class="cls-2" d="M30.75,0H5.94C2.67,0,0,2.66,0,5.94V58.06c0,3.28,2.66,5.94,5.94,5.94H30.75c3.27,0,5.94-2.66,5.94-5.94V5.94c0-3.27-2.66-5.94-5.94-5.94Zm3.1,58.06c0,1.71-1.39,3.11-3.1,3.11H5.94c-1.71,0-3.1-1.39-3.1-3.11v-5.39h31.01v5.39Zm0-37.28v29.05H2.84V11.9h31.01v8.89Zm0-11.72H2.84v-3.12c0-1.71,1.39-3.1,3.1-3.1H30.75c1.71,0,3.1,1.39,3.1,3.1v3.12Z"/><path class="cls-1" d="M27.63,22.95l-4.68,3.65,2.28-4.12c.26-.46,.23-1.03-.06-1.47l-3.87-5.83,3.28-3.29h-4l-2.11,2.11c-.48,.48-.55,1.22-.18,1.78l4.04,6.08-4.31,7.79-3.69-3.71,1.98-5.97c.15-.44,.07-.92-.21-1.29l-5.08-6.8h-3.54l5.9,7.9-2.02,6.09c-.17,.51-.04,1.07,.34,1.45l4.8,4.82-6.89-2.31v-5.78c0-.61-.39-1.15-.97-1.34l-5.8-1.94v2.99l3.93,1.32v5.78c0,.61,.39,1.15,.97,1.34l6.29,2.11-1.92,1.93H5.93c-.54,0-1.03,.3-1.27,.79l-1.83,3.67v6.36l3.97-7.98h5.89c.38,0,.74-.15,1-.42l2.85-2.86,2.31,.46-4.91,4.93c-.43,.43-.54,1.09-.26,1.63l1.8,3.62-3.38,3.39h4l2.11-2.11c.43-.43,.54-1.09,.26-1.63l-1.8-3.62,4.43-4.44,1.53,4.61c.14,.42,.47,.76,.89,.9l5.02,1.68-3.07,4.62h3.4l3.05-4.59c.24-.37,.3-.83,.16-1.24-.14-.42-.47-.74-.89-.88l-6.1-2.04-1.65-4.96,4.68-2.35,5.71,6.69v-4.37l-4.27-5.01c-.42-.5-1.13-.64-1.71-.35l-5.85,2.94-1.53-1.54,8.7-6.79,4.67-1.56v-2.99l-5.8,1.94c-.15,.05-.29,.13-.42,.23Z"/></g><path class="cls-2" d="M21.73,4.53h-6.77c-.78,0-1.42,.63-1.42,1.42s.63,1.42,1.42,1.42h6.77c.78,0,1.42-.63,1.42-1.42s-.63-1.42-1.42-1.42Z"/><path class="cls-2" d="M17.22,60.6h2.26c2.03,0,3.67-1.65,3.67-3.68s-1.65-3.68-3.67-3.68h-2.26c-2.03,0-3.67,1.65-3.67,3.68s1.65,3.68,3.67,3.68Zm0-4.53h2.26c.46,0,.84,.38,.84,.85s-.38,.85-.84,.85h-2.26c-.46,0-.84-.38-.84-.85s.38-.85,.84-.85Z"/></svg>