<?xml version="1.0" encoding="UTF-8"?><svg id="screen" xmlns="http://www.w3.org/2000/svg" viewBox="0 0 49.46 64"><defs><style>.cls-1{fill:#f07350;}.cls-2{fill:#2d3e50;}</style></defs><path class="cls-2" d="M18.6,60.6h2.45c2.13,0,3.87-1.65,3.87-3.68s-1.74-3.68-3.87-3.68h-2.45c-2.13,0-3.87,1.65-3.87,3.68s1.74,3.68,3.87,3.68Zm0-4.53h2.45c.57,0,1.04,.38,1.04,.85s-.48,.85-1.04,.85h-2.45c-.56,0-1.04-.39-1.04-.85s.47-.85,1.04-.85Z"/><path class="cls-2" d="M38.23,40.78c-.78,0-1.42,.63-1.42,1.42v7.64H2.83V11.9H36.81v5.38c0,.78,.63,1.42,1.42,1.42s1.42-.63,1.42-1.42V5.95c0-3.28-2.84-5.95-6.33-5.95H6.33C2.84,0,0,2.67,0,5.95V58.05c0,3.28,2.84,5.95,6.33,5.95h27c3.49,0,6.33-2.67,6.33-5.95v-15.86c0-.78-.63-1.42-1.42-1.42ZM2.83,5.95c0-1.72,1.57-3.11,3.49-3.11h27c1.92,0,3.49,1.4,3.49,3.11v3.11H2.83v-3.11ZM36.81,58.05c0,1.72-1.57,3.11-3.49,3.11H6.33c-1.92,0-3.49-1.4-3.49-3.11v-5.38H36.81v5.38Z"/><path class="cls-2" d="M23.5,4.53h-7.36c-.78,0-1.42,.63-1.42,1.42s.63,1.42,1.42,1.42h7.36c.78,0,1.42-.63,1.42-1.42s-.63-1.42-1.42-1.42Z"/><path class="cls-1" d="M48.86,18.38c-.38-.26-.87-.33-1.3-.17l-12.03,4.44h-4.66c-.78,0-1.42,.63-1.42,1.42v11.33c0,.78,.63,1.42,1.42,1.42h4.66l12.03,4.44c.16,.06,.33,.09,.49,.09,.29,0,.57-.09,.81-.25,.38-.27,.61-.7,.61-1.16V19.54c0-.46-.23-.9-.61-1.16Zm-14.5,15.6h-2.07v-8.49h2.07v8.49Zm12.27,3.91l-9.44-3.48v-9.35l9.44-3.48v16.32Z"/></svg>