<?xml version="1.0" encoding="UTF-8"?><svg id="screen" xmlns="http://www.w3.org/2000/svg" viewBox="0 0 49.66 64"><defs><style>.cls-1{fill:#f07350;}.cls-2{fill:#2d3e50;}</style></defs><path class="cls-1" d="M35.92,9.79c-4.99,0-9.04,4.06-9.04,9.04v10.24c0,4.99,4.06,9.04,9.04,9.04h.71c4.99,0,9.04-4.06,9.04-9.04v-10.24c0-4.99-4.06-9.04-9.04-9.04h-.71Zm6.92,9.04v10.24c0,3.42-2.79,6.21-6.21,6.21h-.71c-3.42,0-6.21-2.78-6.21-6.21v-10.24c0-3.42,2.78-6.21,6.21-6.21h.71c3.42,0,6.21,2.78,6.21,6.21Z"/><path class="cls-1" d="M48.25,28.9c-.78,0-1.42,.63-1.42,1.42,0,5.24-4.74,9.51-10.56,9.51s-10.56-4.27-10.56-9.51c0-.78-.63-1.42-1.42-1.42s-1.42,.63-1.42,1.42c0,6.36,5.25,11.62,11.97,12.27v6.34h-5.57c-.78,0-1.42,.63-1.42,1.42s.63,1.42,1.42,1.42h13.97c.78,0,1.42-.63,1.42-1.42s-.63-1.42-1.42-1.42h-5.57v-6.34c6.72-.65,11.97-5.91,11.97-12.27,0-.78-.63-1.42-1.42-1.42Z"/><path class="cls-2" d="M36.27,53.92c-.78,0-1.42,.63-1.42,1.42v2.35c0,1.92-1.77,3.48-3.95,3.48H6.78c-2.17,0-3.95-1.56-3.95-3.48v-5.92H24.3c.78,0,1.42-.63,1.42-1.42s-.63-1.42-1.42-1.42H2.83V12.62H25.55c.78,0,1.42-.63,1.42-1.42s-.63-1.42-1.42-1.42H2.83v-3.48c0-1.92,1.77-3.48,3.95-3.48H30.91c2.17,0,3.95,1.56,3.95,3.48,0,.78,.63,1.42,1.42,1.42s1.42-.63,1.42-1.42c0-3.48-3.04-6.31-6.78-6.31H6.78C3.04,0,0,2.83,0,6.31V57.69c0,3.48,3.04,6.31,6.78,6.31H30.91c3.74,0,6.78-2.83,6.78-6.31v-2.35c0-.78-.63-1.42-1.42-1.42Z"/><path class="cls-2" d="M14.82,4.89c-.78,0-1.42,.63-1.42,1.42s.63,1.42,1.42,1.42h8.04c.78,0,1.42-.63,1.42-1.42s-.63-1.42-1.42-1.42H14.82Z"/><path class="cls-2" d="M17.5,52.6c-2.26,0-4.1,1.73-4.1,3.86s1.84,3.86,4.1,3.86h2.68c2.26,0,4.1-1.73,4.1-3.86s-1.84-3.86-4.1-3.86h-2.68Zm3.95,3.86c0,.56-.58,1.03-1.26,1.03h-2.68c-.69,0-1.26-.47-1.26-1.03s.58-1.03,1.26-1.03h2.68c.69,0,1.26,.47,1.26,1.03Z"/></svg>