<?xml version="1.0" encoding="UTF-8"?><svg id="screen" xmlns="http://www.w3.org/2000/svg" viewBox="0 0 55.22 64"><defs><style>.cls-1{fill:#f07350;}.cls-2{fill:#2d3e50;}</style></defs><path class="cls-2" d="M0,5.95V58.05c0,3.28,2.77,5.95,6.18,5.95h26.19c3.41,0,6.18-2.67,6.18-5.95v-18.12c0-.78-.63-1.42-1.42-1.42s-1.42,.63-1.42,1.42v9.91H2.83V11.9H35.72v12.17c0,.78,.63,1.42,1.42,1.42s1.42-.63,1.42-1.42V5.95C38.55,2.67,35.78,0,32.37,0H6.18C2.77,0,0,2.67,0,5.95Zm2.83,3.11v-3.11c0-1.72,1.5-3.11,3.35-3.11h26.19c1.84,0,3.35,1.4,3.35,3.11v3.11H2.83Zm0,48.99v-5.38H35.72v5.38c0,1.72-1.5,3.11-3.35,3.11H6.18c-1.84,0-3.35-1.4-3.35-3.11Z"/><path class="cls-2" d="M15.7,4.53h7.14c.78,0,1.42,.63,1.42,1.42s-.63,1.42-1.42,1.42h-7.14c-.78,0-1.42-.63-1.42-1.42,0-.78,.63-1.42,1.42-1.42Z"/><path class="cls-2" d="M14.29,56.92c0,2.03,1.7,3.68,3.8,3.68h2.38c2.09,0,3.8-1.65,3.8-3.68s-1.7-3.68-3.8-3.68h-2.38c-2.09,0-3.8,1.65-3.8,3.68Zm2.83,0c0-.47,.43-.85,.96-.85h2.38c.53,0,.96,.38,.96,.85,0,.47-.43,.85-.96,.85h-2.38c-.53,0-.96-.38-.96-.85Z"/><path class="cls-1" d="M40.48,35.68v.85c0,.45,.21,.88,.58,1.14,.25,.18,.54,.27,.84,.27,.14,0,.29-.02,.43-.07l3.14-1,3.14,1c.14,.04,.28,.07,.43,.07h4.76c.78,0,1.42-.63,1.42-1.42v-9.06c0-.78-.63-1.42-1.42-1.42h-4.76c-.15,0-.29,.02-.43,.07l-3.14,1-3.14-1c-.43-.14-.9-.06-1.27,.21-.37,.27-.58,.69-.58,1.14v.85h-11.33c-.69-.7-1.66-1.13-2.73-1.13-.09,0-.18,0-.26,.02l-5.95,1.13c-.67,.13-1.15,.71-1.15,1.39v4.53c0,.68,.48,1.26,1.15,1.39l5.95,1.13c.09,.02,.18,.02,.26,.02,1.07,0,2.04-.44,2.73-1.13h11.33Zm-13.1-4.82v2.27c0,.44-.38,.8-.86,.84l-4.64-.88v-2.19s4.64-.88,4.64-.88c.48,.05,.86,.41,.86,.84Zm13.1,.28v1.7h-10.26v-1.7h10.26Zm2.83,3.11v-4.53s0-.33,0-.33l1.73,.55c.28,.09,.58,.09,.86,0l3.36-1.07h3.13v6.23h-3.13s-3.36-1.07-3.36-1.07c-.28-.09-.58-.09-.86,0l-1.73,.55v-.33Z"/></svg>