<?xml version="1.0" encoding="UTF-8"?><svg id="screen" xmlns="http://www.w3.org/2000/svg" viewBox="0 0 40.4 64"><defs><style>.cls-1{fill:#f07350;}.cls-2{fill:#2d3e50;}</style></defs><path class="cls-2" d="M33.98,0H6.43C2.88,0,0,2.67,0,5.95V58.05c0,3.28,2.88,5.95,6.43,5.95h27.55c3.54,0,6.43-2.67,6.43-5.95V5.95c0-3.28-2.88-5.95-6.43-5.95ZM2.83,11.9H37.57V49.84H2.83V11.9ZM6.43,2.83h27.55c1.98,0,3.59,1.4,3.59,3.11v3.11H2.83v-3.11c0-1.72,1.61-3.11,3.59-3.11Zm27.55,58.33H6.43c-1.98,0-3.59-1.4-3.59-3.11v-5.38H37.57v5.38c0,1.72-1.61,3.11-3.59,3.11Z"/><path class="cls-2" d="M16.44,7.37h7.51c.78,0,1.42-.63,1.42-1.42s-.63-1.42-1.42-1.42h-7.51c-.78,0-1.42,.63-1.42,1.42s.63,1.42,1.42,1.42Z"/><path class="cls-2" d="M21.45,53.24h-2.5c-2.16,0-3.92,1.65-3.92,3.68s1.76,3.68,3.92,3.68h2.5c2.16,0,3.92-1.65,3.92-3.68s-1.76-3.68-3.92-3.68Zm0,4.53h-2.5c-.59,0-1.09-.39-1.09-.85s.5-.85,1.09-.85h2.5c.59,0,1.09,.39,1.09,.85s-.5,.85-1.09,.85Z"/><path class="cls-1" d="M19.05,33.97c-.58-.32-1.29-.19-1.72,.27v-1.62c0-.78-.63-1.42-1.42-1.42h-5.36l3.95-7.14v1.53c0,.78,.63,1.42,1.42,1.42h5.37c-.28,.66-.02,1.44,.62,1.79,.68,.38,1.55,.13,1.93-.55l1.09-1.97c.24-.44,.24-.97-.02-1.41s-.72-.7-1.22-.7h-6.35v-5.61c0-.65-.44-1.21-1.06-1.37-.63-.16-1.28,.12-1.59,.69l-7.77,14.05c-.24,.44-.24,.97,.02,1.41,.25,.43,.72,.7,1.22,.7h6.35v5.61c0,.65,.44,1.21,1.06,1.37,.12,.03,.24,.04,.35,.04,.51,0,.99-.27,1.24-.73l2.45-4.44c.38-.68,.13-1.55-.55-1.93Z"/><path class="cls-1" d="M28.11,35.76l5.1-4.61c.58-.53,.62-1.42,.1-2-.53-.58-1.42-.62-2-.1l-5.31,4.8-5.31-4.8c-.58-.52-1.48-.48-2,.1-.53,.58-.48,1.48,.1,2l5.1,4.61-5.1,4.61c-.58,.52-.62,1.42-.1,2,.28,.31,.67,.47,1.05,.47,.34,0,.68-.12,.95-.37l5.31-4.8,5.31,4.8c.27,.25,.61,.37,.95,.37,.39,0,.77-.16,1.05-.47,.53-.58,.48-1.48-.1-2l-5.1-4.61Z"/></svg>