<?xml version="1.0" encoding="UTF-8"?><svg id="screen" xmlns="http://www.w3.org/2000/svg" viewBox="0 0 60.02 64"><defs><style>.cls-1{fill:#f07350;}.cls-2{fill:#2d3e50;}</style></defs><path class="cls-2" d="M15.87,7.37h7.22c.78,0,1.42-.63,1.42-1.42s-.63-1.42-1.42-1.42h-7.22c-.78,0-1.42,.63-1.42,1.42s.63,1.42,1.42,1.42Z"/><path class="cls-1" d="M58.61,28.28h0l-5.56,.03-.03-5.15c0-.78-.64-1.41-1.42-1.41h0c-.78,0-1.41,.64-1.41,1.43l.03,5.14-5.56,.03c-.78,0-1.41,.64-1.41,1.42,0,.78,.64,1.41,1.42,1.41h0l5.56-.03,.03,5.15c0,.78,.64,1.41,1.42,1.41h0c.78,0,1.41-.64,1.41-1.43l-.03-5.14,5.56-.03c.78,0,1.41-.64,1.41-1.42,0-.78-.64-1.41-1.42-1.41Z"/><path class="cls-2" d="M20.68,53.24h-2.41c-2.11,0-3.83,1.65-3.83,3.68s1.72,3.68,3.83,3.68h2.41c2.11,0,3.83-1.65,3.83-3.68s-1.72-3.68-3.83-3.68Zm0,4.53h-2.41c-.55,0-.99-.38-.99-.85s.45-.85,.99-.85h2.41c.55,0,.99,.38,.99,.85s-.45,.85-.99,.85Z"/><path class="cls-2" d="M37.54,40.78c-.78,0-1.42,.63-1.42,1.42v7.64H2.83V11.9H36.12v5.38c0,.78,.63,1.42,1.42,1.42s1.42-.63,1.42-1.42V5.95c0-3.28-2.8-5.95-6.23-5.95H6.23C2.8,0,0,2.67,0,5.95V58.05c0,3.28,2.8,5.95,6.23,5.95h26.49c3.44,0,6.23-2.67,6.23-5.95v-15.86c0-.78-.63-1.42-1.42-1.42ZM6.23,2.83h26.49c1.87,0,3.4,1.4,3.4,3.11v3.11H2.83v-3.11c0-1.72,1.53-3.11,3.4-3.11Zm26.49,58.33H6.23c-1.87,0-3.4-1.4-3.4-3.11v-5.38H36.12v5.38c0,1.72-1.53,3.11-3.4,3.11Z"/><path class="cls-1" d="M47.17,33.4c-.78,0-1.42,.63-1.42,1.42v3.07l-9.21-3.46v-9.37l9.21-3.46v3.14c0,.78,.63,1.42,1.42,1.42s1.42-.63,1.42-1.42v-5.19c0-.47-.23-.9-.61-1.17-.38-.26-.87-.32-1.31-.16l-11.8,4.44h-4.56c-.78,0-1.42,.63-1.42,1.42v11.33c0,.78,.63,1.42,1.42,1.42h4.56l11.8,4.44c.16,.06,.33,.09,.5,.09,.28,0,.57-.08,.81-.25,.38-.26,.61-.7,.61-1.17v-5.12c0-.78-.63-1.42-1.42-1.42Zm-15.44-7.91h1.98v8.49h-1.98v-8.49Z"/></svg>