<?xml version="1.0" encoding="UTF-8"?><svg id="screen" xmlns="http://www.w3.org/2000/svg" viewBox="0 0 40.4 64"><defs><style>.cls-1{fill:#f07350;}.cls-2{fill:#2d3e50;}</style></defs><path class="cls-2" d="M34.22,0H6.18C2.77,0,0,2.77,0,6.18V57.82c0,3.41,2.77,6.18,6.18,6.18h28.04c3.41,0,6.18-2.77,6.18-6.18V6.18c0-3.41-2.77-6.18-6.18-6.18Zm3.35,57.82c0,1.85-1.5,3.35-3.35,3.35H6.18c-1.85,0-3.35-1.5-3.35-3.35v-5.15H37.57v5.15Zm0-7.98H2.83V11.9H37.57V49.84Zm0-40.78H2.83v-2.88c0-1.85,1.5-3.35,3.35-3.35h28.04c1.85,0,3.35,1.5,3.35,3.35v2.88Z"/><path class="cls-2" d="M23.96,4.53h-7.51c-.78,0-1.42,.63-1.42,1.42s.63,1.42,1.42,1.42h7.51c.78,0,1.42-.63,1.42-1.42s-.63-1.42-1.42-1.42Z"/><path class="cls-2" d="M18.95,60.6h2.5c2.16,0,3.92-1.65,3.92-3.68s-1.76-3.68-3.92-3.68h-2.5c-2.16,0-3.92,1.65-3.92,3.68s1.76,3.68,3.92,3.68Zm0-4.53h2.5c.59,0,1.09,.39,1.09,.85s-.5,.85-1.09,.85h-2.5c-.59,0-1.09-.39-1.09-.85s.5-.85,1.09-.85Z"/><path class="cls-1" d="M8.93,31.15c.78,0,1.42-.63,1.42-1.42,0-4.84,4.42-8.78,9.85-8.78,2.12,0,4.14,.61,5.81,1.7h-.8c-.78,0-1.42,.63-1.42,1.42s.63,1.42,1.42,1.42h4.36c.42,0,.82-.19,1.09-.51,.27-.32,.38-.75,.31-1.16l-.6-3.4c-.14-.77-.88-1.28-1.64-1.15-.56,.1-.98,.52-1.12,1.03-2.13-1.4-4.7-2.19-7.4-2.19-7,0-12.69,5.21-12.69,11.61,0,.78,.63,1.42,1.42,1.42Z"/><path class="cls-1" d="M30.05,29.73c0,4.84-4.42,8.78-9.85,8.78-2.12,0-4.14-.61-5.81-1.7h.8c.78,0,1.42-.63,1.42-1.42s-.63-1.42-1.42-1.42h-4.36c-.42,0-.82,.19-1.09,.51-.27,.32-.38,.75-.31,1.16l.6,3.4c.12,.69,.72,1.17,1.39,1.17,.08,0,.17,0,.25-.02,.56-.1,.98-.52,1.12-1.03,2.13,1.4,4.7,2.19,7.4,2.19,7,0,12.69-5.21,12.69-11.61,0-.78-.63-1.42-1.42-1.42s-1.42,.63-1.42,1.42Z"/></svg>