<?xml version="1.0" encoding="UTF-8"?><svg id="screen" xmlns="http://www.w3.org/2000/svg" viewBox="0 0 49.55 64"><defs><style>.cls-1{fill:#f07350;}.cls-2{fill:#2d3e50;}</style></defs><path class="cls-2" d="M38.27,47.21c-.78,0-1.42,.63-1.42,1.42v1.21H2.88V11.9H36.86v3.56c0,.78,.63,1.42,1.42,1.42s1.42-.63,1.42-1.42V5.95c0-3.28-2.84-5.95-6.33-5.95H6.37C2.88,0,.04,2.67,.04,5.95V58.05c0,3.28,2.84,5.95,6.33,5.95h27c3.49,0,6.33-2.67,6.33-5.95v-9.43c0-.78-.63-1.42-1.42-1.42ZM6.37,2.83h27c1.92,0,3.49,1.4,3.49,3.11v3.11H2.88v-3.11c0-1.72,1.57-3.11,3.49-3.11Zm27,58.33H6.37c-1.92,0-3.49-1.4-3.49-3.11v-5.38H36.86v5.38c0,1.72-1.57,3.11-3.49,3.11Z"/><path class="cls-2" d="M16.19,7.37h7.36c.78,0,1.42-.63,1.42-1.42s-.63-1.42-1.42-1.42h-7.36c-.78,0-1.42,.63-1.42,1.42s.63,1.42,1.42,1.42Z"/><path class="cls-1" d="M34.59,18.12c-8.22,0-14.92,6.23-14.92,13.88s6.69,13.88,14.92,13.88,14.92-6.22,14.92-13.88-6.69-13.88-14.92-13.88Zm0,24.92c-6.66,0-12.08-4.95-12.08-11.04s5.42-11.04,12.08-11.04,12.08,4.95,12.08,11.04-5.42,11.04-12.08,11.04Z"/><path class="cls-1" d="M33.52,23.14c-1.08,1.25-6.48,7.64-6.48,11.12,0,3.9,3.39,7.08,7.55,7.08s7.55-3.18,7.55-7.08c0-3.48-5.4-9.88-6.48-11.12-.54-.62-1.6-.62-2.14,0Zm1.07,15.37c-2.6,0-4.72-1.91-4.72-4.25,0-1.54,2.49-5.22,4.72-7.98,2.23,2.76,4.72,6.44,4.72,7.98,0,2.34-2.12,4.25-4.72,4.25Z"/><path class="cls-2" d="M21.09,53.24h-2.45c-2.13,0-3.87,1.65-3.87,3.68s1.74,3.68,3.87,3.68h2.45c2.13,0,3.87-1.65,3.87-3.68s-1.74-3.68-3.87-3.68Zm0,4.53h-2.45c-.56,0-1.04-.39-1.04-.85s.47-.85,1.04-.85h2.45c.57,0,1.04,.38,1.04,.85s-.48,.85-1.04,.85Z"/></svg>